<svg xmlns="http://www.w3.org/2000/svg" viewBox="0 0 393.91 134.7"><defs><style>.cls-1{fill:#f89a48;}</style></defs><g id="Layer_2" data-name="Layer 2"><g id="Layer_1-2" data-name="Layer 1"><polygon class="cls-1" points="174.79 88.37 164.25 56.16 153.79 56.16 167.82 99.25 174.79 99.25 181.76 99.25 195.78 56.16 185.33 56.16 174.79 88.37"/><path class="cls-1" d="M237.94,72.22a22.17,22.17,0,0,0-1.65-5.82,20.36,20.36,0,0,0-2.64-4.33A16.27,16.27,0,0,0,230.42,59,20.89,20.89,0,0,0,227,57a24,24,0,0,0-8.76-2,22.6,22.6,0,0,0-10.11,2.55,20.12,20.12,0,0,0-3.7,2.64,16.13,16.13,0,0,0-3.23,4A22.46,22.46,0,0,0,198.93,70a31.21,31.21,0,0,0-.85,7.74,31.13,31.13,0,0,0,.85,7.73,21.94,21.94,0,0,0,2.25,5.7,15.62,15.62,0,0,0,3.23,3.95,21.27,21.27,0,0,0,3.7,2.59,22.81,22.81,0,0,0,18.36.85,23.06,23.06,0,0,0,3.31-1.74A15.3,15.3,0,0,0,233,94.15a19.83,19.83,0,0,0,2.72-3.82,19.4,19.4,0,0,0,1.91-5.19h-11a10.47,10.47,0,0,1-2.89,3.91,9.55,9.55,0,0,1-10.88,0,10.69,10.69,0,0,1-2.89-3.91,14.17,14.17,0,0,1-.85-2.93c-.17-1-.31-2-.42-2.93h29.75V77.75c0-1,0-2-.13-2.89S238.06,73.07,237.94,72.22Zm-28.73,0a13.92,13.92,0,0,1,1-2.72A9.68,9.68,0,0,1,212,67a7.84,7.84,0,0,1,2.63-1.74,10.28,10.28,0,0,1,7.14,0A8,8,0,0,1,224.43,67a8.82,8.82,0,0,1,1.74,2.46,20.89,20.89,0,0,1,1.06,2.72Z"/><path class="cls-1" d="M254.73,88.37a6.18,6.18,0,0,1-1.66-1.27,4.91,4.91,0,0,1-.93-1.87v-19h9.77V56.16h-9.77V44.6H241.77V86.67a11.55,11.55,0,0,0,1.82,6.93,13.37,13.37,0,0,0,4,3.78,14.6,14.6,0,0,0,6,1.87H264V89h-6.46A5.59,5.59,0,0,1,254.73,88.37Z"/><path class="cls-1" d="M304,64.28a16.68,16.68,0,0,0-3-4,16.9,16.9,0,0,0-3.44-2.64,19.66,19.66,0,0,0-9.35-2.55,17.69,17.69,0,0,0-5.1,1.28,17.14,17.14,0,0,0-4.33,2.85,11.3,11.3,0,0,0-1.79,2V41.88H266.93V77.66a31.21,31.21,0,0,0,.85,7.74A22.31,22.31,0,0,0,270,91.14a15.81,15.81,0,0,0,3.19,4,19.89,19.89,0,0,0,3.65,2.59,21.59,21.59,0,0,0,9.95,2.38,22.12,22.12,0,0,0,10-2.38,21.59,21.59,0,0,0,3.69-2.59,15.41,15.41,0,0,0,3.23-3.95,23,23,0,0,0,2.3-5.7,30.09,30.09,0,0,0,.89-7.73,32.85,32.85,0,0,0-.81-7.74A23.64,23.64,0,0,0,304,64.28Zm-7.86,17.55A12.9,12.9,0,0,1,294.81,86a8.7,8.7,0,0,1-2.94,3.19,10.7,10.7,0,0,1-10.11,0,9.08,9.08,0,0,1-3-3.19,12.26,12.26,0,0,1-1.4-4.12,24.65,24.65,0,0,1,0-8.16,12.26,12.26,0,0,1,1.4-4.12,9.08,9.08,0,0,1,3-3.19,10.62,10.62,0,0,1,10.11,0,8.7,8.7,0,0,1,2.94,3.19,12.9,12.9,0,0,1,1.36,4.12,24.65,24.65,0,0,1,0,8.16Z"/><path class="cls-1" d="M350,72.22a21.79,21.79,0,0,0-1.66-5.82,19.94,19.94,0,0,0-2.63-4.33A16.27,16.27,0,0,0,342.45,59,20.89,20.89,0,0,0,339,57a24,24,0,0,0-8.76-2,22.57,22.57,0,0,0-10.11,2.55,20.12,20.12,0,0,0-3.7,2.64,15.91,15.91,0,0,0-3.23,4A22.1,22.1,0,0,0,311,70a31.21,31.21,0,0,0-.85,7.74,31.13,31.13,0,0,0,.85,7.73,21.59,21.59,0,0,0,2.25,5.7,15.41,15.41,0,0,0,3.23,3.95,21.27,21.27,0,0,0,3.7,2.59,22.24,22.24,0,0,0,10.11,2.38,22.46,22.46,0,0,0,8.25-1.53,23.06,23.06,0,0,0,3.31-1.74A15.56,15.56,0,0,0,345,94.15a19.83,19.83,0,0,0,2.72-3.82,19.4,19.4,0,0,0,1.91-5.19H338.58a10.58,10.58,0,0,1-2.89,3.91,9.55,9.55,0,0,1-10.88,0,10.58,10.58,0,0,1-2.89-3.91,13.58,13.58,0,0,1-.85-2.93c-.17-1-.31-2-.42-2.93H350.4V77.75c0-1,0-2-.13-2.89S350.08,73.07,350,72.22Zm-28.73,0a13.92,13.92,0,0,1,1-2.72A9.45,9.45,0,0,1,324.05,67a7.84,7.84,0,0,1,2.63-1.74,10.28,10.28,0,0,1,7.14,0A8,8,0,0,1,336.46,67a9,9,0,0,1,1.74,2.46,22.42,22.42,0,0,1,1.06,2.72Z"/><path class="cls-1" d="M393.91,77.75c0-1,0-2-.12-2.89s-.19-1.79-.3-2.64a21.79,21.79,0,0,0-1.66-5.82,19.94,19.94,0,0,0-2.63-4.33A16.54,16.54,0,0,0,386,59a20.56,20.56,0,0,0-3.45-2,23.89,23.89,0,0,0-8.75-2,22.64,22.64,0,0,0-10.12,2.55A20.4,20.4,0,0,0,360,60.24a15.91,15.91,0,0,0-3.23,4A22.46,22.46,0,0,0,354.47,70a31.69,31.69,0,0,0-.85,7.74,31.61,31.61,0,0,0,.85,7.73,21.94,21.94,0,0,0,2.26,5.7A15.41,15.41,0,0,0,360,95.13a21.59,21.59,0,0,0,3.69,2.59,22.82,22.82,0,0,0,18.36.85,22.63,22.63,0,0,0,3.32-1.74,15.56,15.56,0,0,0,3.19-2.68,20.27,20.27,0,0,0,2.72-3.82,19.4,19.4,0,0,0,1.91-5.19h-11a10.58,10.58,0,0,1-2.89,3.91,9.55,9.55,0,0,1-10.88,0,10.58,10.58,0,0,1-2.89-3.91,13.58,13.58,0,0,1-.85-2.93c-.17-1-.31-2-.43-2.93h29.75Zm-29.15-5.53a13.92,13.92,0,0,1,1-2.72A9.64,9.64,0,0,1,367.56,67a8,8,0,0,1,2.64-1.74,10.28,10.28,0,0,1,7.14,0A7.84,7.84,0,0,1,380,67a8.86,8.86,0,0,1,1.75,2.46,22.42,22.42,0,0,1,1.06,2.72Z"/><path class="cls-1" d="M113.08,27.21,69.53,2.06C64.77-.69,57-.69,52.21,2.06L8.66,27.21C3.9,30,0,36.71,0,42.21V92.5c0,5.5,3.9,12.25,8.66,15l43.55,25.14c4.77,2.75,12.56,2.75,17.32,0l43.55-25.14c4.77-2.75,8.66-9.5,8.66-15V42.21C121.74,36.71,117.85,30,113.08,27.21ZM19,66.08V43.15L38.82,31.68,58.68,43.15V66.08L38.82,77.55Zm62.35,39.11L61.45,116.66,41.59,105.19V82.26L61.45,70.79,81.31,82.26Zm22.62-39.11L84.07,77.55,64.21,66.08V43.15L84.07,31.68l19.86,11.47Z"/></g></g></svg>